<?xml version="1.0" encoding="UTF-8"?>
<svg version="1.1" xmlns="http://www.w3.org/2000/svg" width="512" height="512">
<path d="M0 0 C7.44124856 3.24709028 10.78708425 10.97398787 13.69891357 18.18673706 C13.98776428 18.92433258 14.27661499 19.6619281 14.57421875 20.421875 C15.05571381 21.62265182 15.05571381 21.62265182 15.54693604 22.84768677 C16.23858517 24.57499068 16.92676684 26.30368637 17.61178589 28.03363037 C19.09491717 31.77880088 20.59518169 35.51704067 22.0940094 39.25595093 C22.88025783 41.21801364 23.66559577 43.18044144 24.45005798 45.14321899 C28.55505929 55.41075491 32.74219234 65.64410958 36.9375 75.875 C37.68239032 77.69340034 38.42718171 79.51184122 39.171875 81.33032227 C40.67609704 85.00339266 42.18070371 88.67630513 43.68554688 92.34912109 C46.08954872 98.2174805 48.4903602 104.08714251 50.890625 109.95703125 C51.49596825 111.43731812 51.49596825 111.43731812 52.11354065 112.94750977 C53.67896096 116.77557875 55.24436124 120.6036559 56.80953979 124.43182373 C61.52367175 135.96117877 66.25149446 147.48475712 71 159 C76.75896441 148.26588438 82.30375445 137.44290812 87.671875 126.5078125 C88.84241961 124.13149647 90.01299284 121.75519454 91.18359375 119.37890625 C92.98362222 115.72450826 94.77927829 112.06813198 96.56103516 108.40478516 C97.74652284 105.96823197 98.93943744 103.53560404 100.14093018 101.10690308 C101.25852025 98.84752931 102.36552946 96.58288021 103.46014404 94.31228638 C106.67102752 87.8667686 109.39502595 83.30248702 116 80 C121.45494588 79.50186871 126.37023481 79.28882973 131.4375 81.5 C138.30482059 88.19982497 142.0350761 97.78433986 146.26879883 106.27880859 C146.98840875 107.71531442 147.70835825 109.15165018 148.42861938 110.58782959 C150.37207666 114.46567241 152.31050911 118.34600622 154.24779344 122.22693586 C156.27800298 126.29243537 158.31213075 130.355974 160.34562683 134.41983032 C163.75534976 141.23564531 167.16170878 148.05313356 170.56616211 154.87158203 C174.5052997 162.76076976 178.45022501 170.64704299 182.39812261 178.53185022 C185.7896731 185.30588867 189.17811672 192.08147433 192.56394595 198.85837424 C194.58548163 202.90456718 196.60810138 206.95020836 198.63352394 210.99445724 C200.53401576 214.78968207 202.43061121 218.58682827 204.32416153 222.38552094 C205.02100492 223.78186089 205.71922359 225.17751544 206.41888618 226.57244492 C207.37038433 228.47001105 208.31696446 230.3699492 209.26228333 232.27059937 C209.79411633 233.33501944 210.32594934 234.39943951 210.87389851 235.49611473 C212 238 212 238 212 240 C212.81678223 239.97905273 213.63356445 239.95810547 214.47509766 239.93652344 C218.19160555 239.8531487 221.90791633 239.80127012 225.625 239.75 C226.91019531 239.71648437 228.19539063 239.68296875 229.51953125 239.6484375 C240.18955349 239.53786732 240.18955349 239.53786732 243.6484375 241.640625 C247.22466746 245.22873612 249.75308935 248.2655318 250.48101807 253.3789978 C250.47213562 254.60921661 250.46325317 255.83943542 250.45410156 257.10693359 C250.45468567 257.79055969 250.45526978 258.47418579 250.45587158 259.17852783 C250.45310371 261.41902975 250.42207681 263.65817051 250.390625 265.8984375 C250.38315791 267.45927199 250.37746719 269.02011589 250.37347412 270.58096313 C250.35825441 274.67468478 250.31900507 278.76783222 250.2746582 282.86132812 C250.23362584 287.04419183 250.21544617 291.22714898 250.1953125 295.41015625 C250.15250648 303.60703335 250.08430054 311.8034451 250 320 C250.63502441 319.97905273 251.27004883 319.95810547 251.92431641 319.93652344 C254.82438076 319.85295419 257.72419116 319.80121226 260.625 319.75 C261.62402344 319.71648437 262.62304688 319.68296875 263.65234375 319.6484375 C269.61125363 319.56951154 273.43115612 319.75448969 278 324 C281.6792529 328.62826739 282.50339141 331.68381251 282.51757812 337.5625 C282.52809204 338.66126465 282.52809204 338.66126465 282.53881836 339.78222656 C282.55633397 342.18854382 282.54479954 344.59367209 282.53125 347 C282.53394679 348.68099186 282.53783077 350.36198221 282.54284668 352.04296875 C282.54873298 355.56004743 282.54020709 359.0767188 282.52148438 362.59375 C282.49869501 367.09302189 282.5118228 371.59133927 282.53577423 376.09057617 C282.55025591 379.55996847 282.54561544 383.02913594 282.53526306 386.49853516 C282.53260231 388.15706496 282.53584257 389.81561544 282.54518127 391.47412109 C282.55538646 393.79579421 282.53979279 396.11594011 282.51757812 398.4375 C282.51439575 399.75621094 282.51121338 401.07492187 282.50793457 402.43359375 C281.73689296 407.84737693 279.55597025 410.74333427 275.34767914 414.1421237 C271.45627672 416.30175252 268.42414649 416.55963747 264.09448242 416.50336456 C263.31270504 416.50917833 262.53092766 416.51499209 261.72546005 416.52098203 C259.10181635 416.53559775 256.47910587 416.52168976 253.85546875 416.50793457 C251.95715354 416.51254286 250.05884189 416.5188953 248.16053772 416.52684355 C242.94085668 416.54356975 237.72146749 416.53527549 232.50178528 416.52289867 C226.87389124 416.513864 221.24604806 416.52781005 215.61816406 416.53881836 C204.59185932 416.55662507 193.56566336 416.55275399 182.53935432 416.5411678 C173.5797753 416.53214222 164.6202268 416.53090568 155.66064453 416.53526306 C154.38652364 416.53587599 153.11240274 416.53648893 151.79967213 416.53712043 C149.21149571 416.5383993 146.6233193 416.53969616 144.0351429 416.5410108 C120.44591709 416.55209744 96.85676425 416.54059106 73.26755071 416.51964041 C51.73041866 416.50065777 30.19338122 416.50235627 8.65625 416.52148438 C-15.53729558 416.5428999 -39.73077389 416.55132421 -63.92433167 416.53903532 C-66.50310261 416.53776109 -69.08187357 416.53650361 -71.66064453 416.53526306 C-72.92952106 416.53464596 -74.19839758 416.53402886 -75.50572491 416.53339306 C-84.45679175 416.52993621 -93.40782507 416.5357757 -102.35888672 416.54518127 C-113.26402558 416.55638802 -124.16904925 416.55338905 -135.07417488 416.5320583 C-140.64045682 416.52153011 -146.20654654 416.51745625 -151.77282715 416.53065491 C-156.86540044 416.54254789 -161.95760279 416.53606729 -167.05014229 416.5147447 C-168.89527582 416.51026551 -170.74044051 416.5125743 -172.58555412 416.52224785 C-175.08897908 416.53436901 -177.59112479 416.52198102 -180.09448242 416.50336456 C-180.81500416 416.51272923 -181.53552589 416.52209389 -182.27788162 416.53174233 C-187.30079891 416.45681534 -190.12150539 415.13243218 -194 412 C-197.81615622 407.47573413 -198.50344092 404.2956698 -198.51757812 398.4375 C-198.52809204 397.33873535 -198.52809204 397.33873535 -198.53881836 396.21777344 C-198.55633397 393.81145618 -198.54479954 391.40632791 -198.53125 389 C-198.53394679 387.31900814 -198.53783077 385.63801779 -198.54284668 383.95703125 C-198.54873298 380.43995257 -198.54020709 376.9232812 -198.52148438 373.40625 C-198.49869501 368.90697811 -198.5118228 364.40866073 -198.53577423 359.90942383 C-198.55025591 356.44003153 -198.54561544 352.97086406 -198.53526306 349.50146484 C-198.53260231 347.84293504 -198.53584257 346.18438456 -198.54518127 344.52587891 C-198.55538646 342.20420579 -198.53979279 339.88405989 -198.51757812 337.5625 C-198.51439575 336.24378906 -198.51121338 334.92507813 -198.50793457 333.56640625 C-197.75216189 328.25983221 -195.31946137 325.2260841 -191.4609375 321.640625 C-186.48640807 319.28249592 -182.05095674 319.5679679 -176.625 319.75 C-175.60277344 319.76804687 -174.58054687 319.78609375 -173.52734375 319.8046875 C-171.01725251 319.85160509 -168.50912236 319.91723271 -166 320 C-166.00888245 319.13635834 -166.01776489 318.27271667 -166.0269165 317.38290405 C-166.10716339 309.2320842 -166.16801565 301.08139759 -166.20724869 292.93027306 C-166.22809718 288.73996462 -166.25636416 284.54998341 -166.30175781 280.35986328 C-166.34531419 276.31387758 -166.3691577 272.26820605 -166.37950897 268.22200394 C-166.38688286 266.68065065 -166.40128257 265.13931398 -166.42292023 263.59809494 C-166.45208611 261.43400064 -166.45595076 259.27119375 -166.45410156 257.10693359 C-166.46298401 255.87671478 -166.47186646 254.64649597 -166.48101807 253.3789978 C-165.73593543 248.14503097 -163.23397321 245.09338248 -159.34716797 241.64941406 C-154.89684916 239.45639044 -151.33559119 239.49277322 -146.4453125 239.609375 C-145.09299026 239.61786469 -145.09299026 239.61786469 -143.71334839 239.62652588 C-140.85001237 239.64881445 -137.98795411 239.69899611 -135.125 239.75 C-133.17710148 239.77007475 -131.22918323 239.78832381 -129.28125 239.8046875 C-124.5203453 239.84865453 -119.76038886 239.91762937 -115 240 C-114.80397438 238.89761742 -114.80397438 238.89761742 -114.60398865 237.77296448 C-114.04934313 235.22653861 -113.32464541 233.03656914 -112.33618164 230.63256836 C-111.99322556 229.79220032 -111.65026947 228.95183228 -111.29692078 228.08599854 C-110.92178848 227.17976746 -110.54665619 226.27353638 -110.16015625 225.33984375 C-109.76677567 224.37939148 -109.37339508 223.41893921 -108.96809387 222.42938232 C-107.67038271 219.26369917 -106.36642779 216.10062703 -105.0625 212.9375 C-104.15141578 210.71803526 -103.24077698 208.49838763 -102.33056641 206.27856445 C-100.46260622 201.7245337 -98.59235525 197.17145446 -96.72021484 192.61914062 C-94.24027994 186.58740399 -91.76828641 180.55245585 -89.30078125 174.515625 C-88.93132889 173.61175552 -88.56187653 172.70788605 -88.18122864 171.77662659 C-87.44516101 169.97569968 -86.70912253 168.17476087 -85.97311401 166.37380981 C-84.12661964 161.85674155 -82.27811931 157.34049446 -80.4296875 152.82421875 C-76.32784482 142.80154683 -72.22726741 132.77835764 -68.12701416 122.7550354 C-66.25139496 118.17000225 -64.37569338 113.58500281 -62.5 109 C-61.7499996 107.16666683 -60.9999996 105.3333335 -60.25 103.5 C-55.75 92.5 -55.75 92.5 -54.62521362 89.75057983 C-53.87444769 87.91533575 -53.1237357 86.0800696 -52.37307739 84.24478149 C-50.51023564 79.69050104 -48.64648946 75.13659509 -46.78076172 70.58349609 C-43.25947103 61.98740128 -39.74796802 53.38763418 -36.26617432 44.77545166 C-34.61962339 40.7042373 -32.96820713 36.63500462 -31.31640625 32.56591797 C-30.52978793 30.62419578 -29.74555906 28.68150366 -28.96386719 26.73779297 C-27.88037255 24.04406583 -26.7887143 21.35378045 -25.6953125 18.6640625 C-25.37942169 17.87238678 -25.06353088 17.08071106 -24.73806763 16.26504517 C-19.72442828 4.00475619 -13.75045258 -1.81574064 0 0 Z M-7 61 C-7.21059052 61.51616882 -7.42118103 62.03233765 -7.63815308 62.56414795 C-18.96800945 90.33364905 -30.30759391 118.09913322 -41.6675415 145.8563385 C-43.91810987 151.35559901 -46.16792239 156.85516794 -48.41699219 162.3550415 C-49.18060704 164.22237439 -49.94427891 166.08968397 -50.70800781 167.95697021 C-52.59005622 172.55852632 -54.47147809 177.16033639 -56.3515625 181.76269531 C-59.7255365 190.01884838 -63.10753771 198.27141934 -66.52078247 206.51142883 C-68.03174832 210.15921128 -69.53927137 213.80841281 -71.04681396 217.45761108 C-71.76024521 219.18125532 -72.47558947 220.90410909 -73.19293213 222.62612915 C-74.17752483 224.98975018 -75.1558124 227.35588895 -76.1328125 229.72265625 C-76.57197998 230.7693045 -76.57197998 230.7693045 -77.02001953 231.83709717 C-78.20742322 234.7285743 -79 236.84049751 -79 240 C-78.02111816 240.01401855 -78.02111816 240.01401855 -77.02246094 240.02832031 C-39.23212563 240.7033841 -7.8959977 250.69271909 20 277 C20.67675781 277.61230469 21.35351562 278.22460938 22.05078125 278.85546875 C29.05697677 285.44045011 34.91248969 293.58420323 39.66796875 301.92578125 C40.10753906 302.61027344 40.54710937 303.29476562 41 304 C41.66 304 42.32 304 43 304 C44.25459908 302.2760545 45.42732093 300.49232005 46.5625 298.6875 C55.12774408 285.55412575 65.30959563 274.23921185 78 265 C64.38279925 230.79030922 50.4851546 196.69414142 36.52880859 162.6217041 C32.39263671 152.52127341 28.27061656 142.41507572 24.14828491 132.30899048 C16.73506881 114.13530189 9.30518129 95.96858665 1.84716797 77.81323242 C1.53255615 77.047202 1.21794434 76.28117157 0.89379883 75.4919281 C0.31459767 74.08181128 -0.2648117 72.67177994 -0.84448242 71.26185608 C-2.24686185 67.84796206 -3.63594338 64.429394 -5 61 C-5.66 61 -6.32 61 -7 61 Z M121 134 C116.66117631 142.49220466 112.33974174 150.99296487 108.0401907 159.50512123 C106.04313941 163.45749203 104.04025164 167.40666853 102.02368164 171.34912109 C100.07742547 175.15464701 98.14695514 178.96780049 96.22712898 182.78672409 C95.4923157 184.24158042 94.75187903 185.6936107 94.0057354 187.14268875 C92.96067079 189.17465691 91.93614529 191.21580118 90.91577148 193.26025391 C90.32730942 194.41941315 89.73884735 195.57857239 89.1325531 196.77285767 C87.43884486 201.598978 88.51754359 205.30284331 90.44287109 209.890625 C90.73342377 210.59155273 91.02397644 211.29248047 91.32333374 212.01464844 C91.63686798 212.75231445 91.95040222 213.48998047 92.2734375 214.25 C92.76005356 215.41450684 92.76005356 215.41450684 93.25650024 216.60253906 C93.94111819 218.23758496 94.62879002 219.87135513 95.31933594 221.50390625 C96.37054451 223.98946508 97.41264673 226.47868291 98.453125 228.96875 C99.12186665 230.56272212 99.79112058 232.15647943 100.4609375 233.75 C100.77042328 234.48766602 101.07990906 235.22533203 101.39877319 235.98535156 C103.12806003 240.06847954 104.96914002 244.05459504 107 248 C107.56203125 247.82984375 108.1240625 247.6596875 108.703125 247.484375 C111.78771432 246.59495354 114.8899209 245.79591272 118 245 C118.62293945 244.82887695 119.24587891 244.65775391 119.88769531 244.48144531 C137.86746809 239.64987642 156.51877748 240.1699827 175 240 C173.35258187 234.38160141 170.80757013 229.34709567 168.18310547 224.13916016 C167.69513489 223.16292694 167.20716431 222.18669373 166.70440674 221.18087769 C165.0957869 217.96502772 163.48152369 214.75204617 161.8671875 211.5390625 C160.74868455 209.30578799 159.63053547 207.07233621 158.51272583 204.8387146 C155.87371221 199.56753495 153.23114376 194.29814989 150.58683217 189.02962625 C147.27949697 182.43954833 143.97771513 175.84669165 140.67578125 169.25390625 C134.7882986 157.50037349 128.89589915 145.74931288 123 134 C122.34 134 121.68 134 121 134 Z M-134 272 C-134 287.84 -134 303.68 -134 320 C-127.80734375 320.02578125 -121.6146875 320.0515625 -115.234375 320.078125 C-111.26949209 320.10334398 -107.30468168 320.12971566 -103.33984375 320.16015625 C-97.07112529 320.20817803 -90.80257504 320.25233833 -84.53369141 320.27099609 C-79.46949339 320.28633867 -74.40574089 320.32108734 -69.34174347 320.36830902 C-67.42688154 320.38294393 -65.51195594 320.39103049 -63.59703827 320.39188385 C-47.09843058 320.406606 -30.6582216 322.11742868 -15.1875 328.25 C-14.415271 328.54664551 -13.64304199 328.84329102 -12.84741211 329.14892578 C-1.28865232 333.71720094 8.94757774 339.53635334 18.70703125 347.21484375 C20.86087428 349.01234487 20.86087428 349.01234487 23 350 C22.28041323 329.49177718 8.01663778 310.26093246 -6.12109375 296.51171875 C-28.7654776 276.7554924 -55.12361999 271.78896492 -84.390625 271.90234375 C-85.8307897 271.90421418 -87.27095504 271.90563512 -88.71112061 271.90663147 C-92.45926746 271.91040748 -96.20737414 271.92019434 -99.95550537 271.93133545 C-104.47533844 271.94347875 -108.99518512 271.94797527 -113.51502991 271.95378876 C-120.34338102 271.96340989 -127.17164437 271.98260045 -134 272 Z M82.6640625 303.93359375 C71.05320989 316.90768107 63.38502922 332.97813876 60 350 C63.59639425 348.36917683 66.61650006 346.18255216 69.8125 343.875 C80.0990161 336.67851606 90.53216777 331.2390415 102.4375 327.1875 C103.24638672 326.9095459 104.05527344 326.6315918 104.88867188 326.34521484 C119.89468296 321.49571126 134.40022156 320.5393391 150.03125 320.48828125 C152.00379522 320.47139239 153.97632996 320.45323667 155.94885254 320.43388367 C161.08441894 320.38683373 166.21994284 320.35673551 171.35565186 320.33044434 C177.54768053 320.29510733 183.73954601 320.23822568 189.93144226 320.18505096 C199.28760594 320.10706634 208.64356384 320.05606129 218 320 C218 304.16 218 288.32 218 272 C206.88672861 271.94160343 206.88672861 271.94160343 195.7734375 271.90234375 C191.22521156 271.89049587 186.67706786 271.87665039 182.12890625 271.84912109 C143.75058693 271.62325899 110.73287137 274.85366064 82.6640625 303.93359375 Z M-166 352 C-166 362.56 -166 373.12 -166 384 C-107.92 384 -49.84 384 10 384 C-7.40117703 363.6986268 -30.62055355 354.32265833 -56.82569122 352.20608711 C-61.58498464 351.89709731 -66.32501836 351.86839364 -71.09277344 351.88647461 C-72.12840424 351.88632858 -73.16403503 351.88618256 -74.23104858 351.8860321 C-77.60717974 351.88672109 -80.98325365 351.89446532 -84.359375 351.90234375 C-86.71877004 351.90421154 -89.07816547 351.90563374 -91.43756104 351.90663147 C-97.61223442 351.91042822 -103.78688385 351.9202339 -109.96154785 351.93133545 C-116.27644527 351.94161102 -122.59134661 351.9461422 -128.90625 351.95117188 C-141.27084549 351.96185901 -153.63541699 351.97943244 -166 352 Z M75.109375 381.6875 C73.8924109 382.84086569 73.8924109 382.84086569 74 384 C132.08 384 190.16 384 250 384 C250 373.44 250 362.88 250 352 C236.49019181 351.95460179 222.98043528 351.9179996 209.4705677 351.89637566 C203.19568139 351.88599109 196.92085052 351.87193053 190.64599609 351.84912109 C184.57701964 351.82720108 178.50809612 351.81539145 172.4390831 351.81024551 C170.13734989 351.80658384 167.83561918 351.79943485 165.53390884 351.78853989 C131.34359981 351.63331383 100.04790323 356.03644239 75.109375 381.6875 Z " fill="#2A88F3" transform="translate(214,80)"/>
<path d="M0 0 C11.60932955 7.70484652 19.27613878 16.73296788 22.17578125 30.484375 C23.5370738 36.87986758 25.56853658 40.58497736 30.265625 45.1328125 C39.51247841 55.53330405 40.09765737 68.78654084 39.52294922 81.89990234 C38.35024777 95.21199683 30.52494287 105.2265528 20.6953125 113.6328125 C12.02639452 120.10975285 2.70244551 122.80913492 -8.01171875 122.734375 C-9.27628906 122.72591553 -9.27628906 122.72591553 -10.56640625 122.71728516 C-21.12212658 122.51130993 -29.9569559 119.45790242 -38.69921875 113.421875 C-39.76833416 112.19488989 -40.83310045 110.96410763 -41.89453125 109.73046875 C-44.74044859 106.80149559 -46.46302252 105.9477935 -50.5546875 105.87890625 C-52.33369704 105.96899318 -54.11140669 106.08857488 -55.88671875 106.234375 C-70.2873397 106.80382068 -79.64403105 103.05487617 -90.6640625 93.765625 C-99.29308072 85.75970875 -104.36647506 75.47359102 -105.015625 63.765625 C-105.57491263 47.07889048 -101.90948916 35.09146481 -90.38671875 22.671875 C-83.84409397 16.54717119 -77.3099567 13.37535792 -68.63671875 11.546875 C-62.20455327 10.18019802 -58.37526166 8.09870714 -53.77734375 3.38671875 C-40.31077395 -9.34577112 -15.19339923 -8.88297148 0 0 Z M-35.69921875 31.421875 C-36.51365268 32.57276361 -37.30449515 33.74061601 -38.07421875 34.921875 C-40.88382408 39.03909538 -43.90054912 41.05739706 -48.69921875 42.421875 C-52.03334078 42.75610239 -55.35722084 42.92359187 -58.703125 43.09765625 C-64.07981742 43.67948868 -66.57785876 46.18247711 -70.07421875 50.046875 C-72.27829768 54.62457739 -72.49638265 58.42739911 -71.69921875 63.421875 C-69.36952944 68.26046048 -66.53780423 71.09218569 -61.69921875 73.421875 C-55.22948753 74.50200048 -50.6201659 73.17921389 -44.859375 70.32421875 C-40.21570753 68.38445892 -36.15546872 68.88978366 -31.44921875 70.609375 C-27.81818302 73.00255764 -25.7389828 75.64043625 -23.5546875 79.3828125 C-20.86477575 83.97701098 -18.71982652 87.14839224 -13.69921875 89.421875 C-8.6973049 90.20520898 -4.90971671 90.00470735 -0.32421875 87.796875 C3.25985838 84.55413855 5.89613366 81.95711604 6.68359375 77.0234375 C6.94010128 71.32897034 6.24637535 67.77214542 2.30078125 63.421875 C1.14989264 62.60744107 -0.01795976 61.8165986 -1.19921875 61.046875 C-5.31643913 58.23726967 -7.33474081 55.22054463 -8.69921875 50.421875 C-9.03344614 47.08775297 -9.20093562 43.76387291 -9.375 40.41796875 C-9.95683243 35.04127633 -12.45982086 32.54323499 -16.32421875 29.046875 C-23.23258021 25.72062689 -29.92347625 26.18341087 -35.69921875 31.421875 Z " fill="#2A88F3" transform="translate(456.69921875,53.578125)"/>
<path d="M0 0 C3.6294806 2.45902679 6.87103256 4.95296694 9.9609375 8.07421875 C13.91469758 11.38112514 17.86522078 10.70189046 22.765625 10.3515625 C34.82670341 9.93657422 44.83718639 12.31626124 54.2421875 20.41015625 C63.64799929 29.43465134 70.95563348 39.49798503 71.6015625 52.98828125 C71.90381499 69.77237841 68.59246734 81.70138021 56.828125 94.1640625 C49.02621038 101.51719443 39.912937 104.91131157 29.515625 107.1640625 C26.27571293 108.34787653 25.07821136 109.29040697 22.640625 111.6015625 C12.28530004 121.30714158 -0.05505004 122.91548018 -13.52734375 122.69140625 C-27.01021623 122.10050386 -36.91751942 115.59465193 -45.984375 106.0390625 C-51.52235041 99.51019686 -54.48181009 93.19150476 -56.046875 84.7890625 C-57.2745978 78.81088956 -59.40672273 75.9798689 -63.6640625 71.74609375 C-72.84062186 61.13245057 -73.53816072 48.14455588 -72.95654297 34.87353516 C-71.78384152 21.56144067 -63.95853662 11.5468847 -54.12890625 3.140625 C-39.02621441 -8.14327853 -16.24810075 -9.79528359 0 0 Z M-38.109375 33.9765625 C-40.31514943 38.55778631 -40.52523829 42.35363263 -39.734375 47.3515625 C-37.86265163 51.31961605 -35.82372377 53.38769653 -32.234375 55.7265625 C-28.11715462 58.53616783 -26.09885294 61.55289287 -24.734375 66.3515625 C-24.40014761 69.68568453 -24.23265813 73.00956459 -24.05859375 76.35546875 C-23.47676132 81.73216117 -20.97377289 84.23020251 -17.109375 87.7265625 C-12.52815119 89.93233693 -8.73230487 90.14242579 -3.734375 89.3515625 C0.23367855 87.47983913 2.30175903 85.44091127 4.640625 81.8515625 C7.45023033 77.73434212 10.46695537 75.71604044 15.265625 74.3515625 C18.59974703 74.01733511 21.92362709 73.84984563 25.26953125 73.67578125 C30.64622367 73.09394882 33.14426501 70.59096039 36.640625 66.7265625 C38.84470393 62.14886011 39.0627889 58.34603839 38.265625 53.3515625 C35.93593569 48.51297702 33.10421048 45.68125181 28.265625 43.3515625 C21.79589378 42.27143702 17.18657215 43.59422361 11.42578125 46.44921875 C6.78211378 48.38897858 2.72187497 47.88365384 -1.984375 46.1640625 C-5.61541073 43.77087986 -7.69461095 41.13300125 -9.87890625 37.390625 C-12.568818 32.79642652 -14.71376723 29.62504526 -19.734375 27.3515625 C-27.8274011 26.08413916 -32.57755407 27.86244463 -38.109375 33.9765625 Z " fill="#2A88F3" transform="translate(88.734375,21.6484375)"/>
</svg>
